<?xml version="1.0" standalone="no"?>
<!DOCTYPE svg PUBLIC "-//W3C//DTD SVG 20010904//EN"
 "http://www.w3.org/TR/2001/REC-SVG-20010904/DTD/svg10.dtd">
<svg version="1.0" xmlns="http://www.w3.org/2000/svg"
 width="704.000000pt" height="704.000000pt" viewBox="0 0 704.000000 704.000000"
 preserveAspectRatio="xMidYMid meet">
<metadata>
Created by potrace 1.11, written by Peter Selinger 2001-2013
</metadata>
<g transform="translate(0.000000,704.000000) scale(0.100000,-0.100000)"
fill="#000000" stroke="none">
<path d="M3422 7014 c-832 -121 -1276 -682 -1038 -1314 38 -102 107 -220 183
-314 l55 -69 -1080 -1081 c-752 -752 -1087 -1095 -1104 -1126 -19 -38 -23 -60
-23 -140 0 -84 3 -101 27 -145 39 -72 2426 -2456 2483 -2480 75 -30 130 -37
192 -25 92 19 130 45 271 183 l132 131 203 -201 c233 -231 245 -238 387 -238
76 0 92 4 145 32 33 17 76 49 96 70 20 21 152 191 294 378 143 187 352 462
465 610 114 149 337 441 497 650 159 209 295 390 301 402 7 12 12 40 12 63 0
99 -133 147 -202 72 -14 -15 -366 -475 -783 -1022 -417 -547 -766 -1000 -774
-1007 -9 -7 -34 -13 -55 -13 -38 0 -47 7 -228 187 l-188 188 1134 1135 c623
624 1147 1155 1163 1180 178 266 360 875 435 1450 29 224 31 659 5 826 -70
440 -237 697 -538 825 -109 47 -248 84 -387 105 l-122 18 -83 81 c-323 318
-803 533 -1327 595 -118 14 -436 11 -548 -6z m573 -239 c271 -38 535 -122 745
-237 79 -43 206 -126 252 -163 l26 -22 -121 -7 c-460 -26 -1056 -162 -1453
-330 -187 -79 -238 -116 -455 -333 l-197 -196 -59 79 c-231 313 -231 638 2
883 161 170 389 276 700 326 111 18 436 18 560 0z m1446 -681 c147 -18 269
-52 385 -109 195 -95 302 -269 361 -585 25 -135 24 -566 -1 -770 -59 -483
-198 -1000 -348 -1295 -40 -78 -70 -109 -1377 -1418 -735 -736 -1345 -1343
-1356 -1349 -59 -33 -1 -87 -1267 1179 -1166 1166 -1188 1189 -1188 1226 0 38
19 58 1009 1045 555 554 1039 1036 1074 1071 l65 64 74 -55 c254 -191 575
-335 893 -401 207 -43 291 -51 505 -51 167 0 229 4 334 23 161 28 296 68 431
127 l105 46 53 -20 c84 -33 127 -42 213 -42 141 0 267 53 369 155 239 239 198
630 -87 819 -153 102 -351 112 -526 29 -76 -37 -198 -159 -235 -235 -75 -156
-75 -323 -2 -472 13 -28 22 -53 19 -57 -14 -23 -230 -88 -384 -116 -145 -26
-465 -23 -628 5 -236 42 -413 97 -607 192 -113 55 -317 181 -343 212 -9 11 25
50 176 201 175 176 192 190 282 236 323 165 902 312 1380 351 253 20 421 19
621 -6z m-21 -531 c-1 -91 -75 -236 -174 -341 -77 -82 -82 -83 -111 -20 -48
103 -24 226 62 311 51 51 125 86 186 86 36 1 37 0 37 -36z m256 -168 c12 -32
15 -63 12 -108 -12 -141 -116 -252 -251 -265 l-50 -5 58 68 c32 38 75 95 95
127 40 62 100 195 100 223 0 27 17 7 36 -40z"/>
<path d="M2995 4310 c-11 -4 -320 -309 -687 -677 -702 -704 -692 -693 -668
-759 16 -44 1286 -1311 1328 -1325 72 -24 54 -40 755 659 362 362 665 669 673
684 8 15 14 46 14 70 l0 43 -642 643 c-354 354 -655 650 -670 658 -30 15 -72
17 -103 4z m570 -1920 l-560 -560 -540 540 -540 540 560 560 560 560 540 -540
540 -540 -560 -560z"/>
<path d="M3023 3663 c-32 -6 -79 -56 -86 -92 -4 -17 -2 -43 4 -59 5 -15 153
-170 327 -345 341 -342 344 -343 415 -313 50 20 79 69 73 120 -4 36 -30 65
-318 354 -275 276 -354 346 -385 341 -4 -1 -18 -4 -30 -6z"/>
<path d="M2669 3325 c-37 -20 -63 -78 -54 -123 5 -32 51 -82 313 -345 169
-170 320 -315 336 -324 36 -19 99 -12 128 14 11 10 27 33 35 51 29 69 20 80
-325 425 l-318 317 -45 0 c-24 -1 -56 -7 -70 -15z"/>
<path d="M2352 3008 c-38 -19 -65 -73 -59 -121 5 -38 27 -62 329 -364 l324
-323 48 0 c41 0 53 5 82 34 28 28 34 42 34 76 0 25 -8 56 -20 74 -18 29 -517
528 -603 604 -40 34 -89 42 -135 20z"/>
</g>
</svg>
